<svg xmlns="http://www.w3.org/2000/svg" width="64" height="64" viewBox="0 0 64 64" version="1.1"><path d="M 30 34.500 C 30 36.500, 29.500 37, 27.500 37 C 25.667 37, 25 37.533, 25 39 C 25 40.467, 25.667 41, 27.500 41 C 29.500 41, 30 41.500, 30 43.500 C 30 45.333, 30.533 46, 32 46 C 33.467 46, 34 45.333, 34 43.500 C 34 41.500, 34.500 41, 36.500 41 C 38.333 41, 39 40.467, 39 39 C 39 37.533, 38.333 37, 36.500 37 C 34.500 37, 34 36.500, 34 34.500 C 34 32.667, 33.467 32, 32 32 C 30.533 32, 30 32.667, 30 34.500" stroke="none" fill="#ed7899" fill-rule="evenodd"/><path d="M 19 10 L 19 14 32 14 L 45 14 45 10 L 45 6 32 6 L 19 6 19 10 M 21 10 C 21 11.100, 21.450 12, 22 12 C 22.550 12, 23 11.100, 23 10 C 23 8.900, 22.550 8, 22 8 C 21.450 8, 21 8.900, 21 10 M 26 10 C 26 11.100, 26.450 12, 27 12 C 27.550 12, 28 11.100, 28 10 C 28 8.900, 27.550 8, 27 8 C 26.450 8, 26 8.900, 26 10 M 31 10 C 31 11.100, 31.450 12, 32 12 C 32.550 12, 33 11.100, 33 10 C 33 8.900, 32.550 8, 32 8 C 31.450 8, 31 8.900, 31 10 M 36 10 C 36 11.100, 36.450 12, 37 12 C 37.550 12, 38 11.100, 38 10 C 38 8.900, 37.550 8, 37 8 C 36.450 8, 36 8.900, 36 10 M 41 10 C 41 11.100, 41.450 12, 42 12 C 42.550 12, 43 11.100, 43 10 C 43 8.900, 42.550 8, 42 8 C 41.450 8, 41 8.900, 41 10 M 26.299 28.960 C 22.854 31.060, 20 35.609, 20 39 C 20 44.377, 26.503 50.988, 31.800 50.996 C 37.508 51.006, 43.988 44.578, 43.996 38.898 C 43.998 37.467, 42.974 34.773, 41.720 32.912 C 37.683 26.921, 32.021 25.470, 26.299 28.960 M 28 32.500 C 28 34.500, 27.500 35, 25.500 35 C 23.250 35, 23 35.400, 23 39 C 23 42.600, 23.250 43, 25.500 43 C 27.500 43, 28 43.500, 28 45.500 C 28 47.750, 28.400 48, 32 48 C 35.600 48, 36 47.750, 36 45.500 C 36 43.500, 36.500 43, 38.500 43 C 40.750 43, 41 42.600, 41 39 C 41 35.400, 40.750 35, 38.500 35 C 36.500 35, 36 34.500, 36 32.500 C 36 30.250, 35.600 30, 32 30 C 28.400 30, 28 30.250, 28 32.500" stroke="none" fill="#f9dd8f" fill-rule="evenodd"/><path d="M 17.693 4.640 C 16.574 5.759, 16.889 16, 18.042 16 C 18.615 16, 17.940 17.952, 16.542 20.338 C 14.090 24.523, 14 25.274, 14 41.638 C 14 53.497, 14.361 58.961, 15.200 59.800 C 16.880 61.480, 47.120 61.480, 48.800 59.800 C 49.640 58.960, 50 53.453, 50 41.440 C 50 24.659, 49.943 24.195, 47.430 20.492 C 45.678 17.911, 45.219 16.483, 45.988 16.008 C 46.666 15.588, 46.993 13.159, 46.808 9.905 L 46.500 4.500 32.443 4.224 C 24.712 4.072, 18.074 4.259, 17.693 4.640 M 19 10 L 19 14 32 14 L 45 14 45 10 L 45 6 32 6 L 19 6 19 10 M 21 10 C 21 11.100, 21.450 12, 22 12 C 22.550 12, 23 11.100, 23 10 C 23 8.900, 22.550 8, 22 8 C 21.450 8, 21 8.900, 21 10 M 26 10 C 26 11.100, 26.450 12, 27 12 C 27.550 12, 28 11.100, 28 10 C 28 8.900, 27.550 8, 27 8 C 26.450 8, 26 8.900, 26 10 M 31 10 C 31 11.100, 31.450 12, 32 12 C 32.550 12, 33 11.100, 33 10 C 33 8.900, 32.550 8, 32 8 C 31.450 8, 31 8.900, 31 10 M 36 10 C 36 11.100, 36.450 12, 37 12 C 37.550 12, 38 11.100, 38 10 C 38 8.900, 37.550 8, 37 8 C 36.450 8, 36 8.900, 36 10 M 41 10 C 41 11.100, 41.450 12, 42 12 C 42.550 12, 43 11.100, 43 10 C 43 8.900, 42.550 8, 42 8 C 41.450 8, 41 8.900, 41 10 M 19.079 20.877 L 15.949 25.754 16.225 42.127 L 16.500 58.500 32 58.500 L 47.500 58.500 47.500 41.500 L 47.500 24.500 44.617 20.250 L 41.734 16 31.971 16 L 22.208 16 19.079 20.877 M 26.071 26.698 C 13.736 33.181, 16.829 50.941, 30.587 52.626 C 38.180 53.555, 46.004 46.689, 45.996 39.102 C 45.986 29.145, 34.737 22.142, 26.071 26.698 M 25.873 28.684 C 18.098 33.509, 18.189 44.727, 26.040 49.364 C 33.781 53.937, 44 48.040, 44 39 C 44 29.939, 33.489 23.957, 25.873 28.684 M 28 32.500 C 28 34.500, 27.500 35, 25.500 35 C 23.250 35, 23 35.400, 23 39 C 23 42.600, 23.250 43, 25.500 43 C 27.500 43, 28 43.500, 28 45.500 C 28 47.750, 28.400 48, 32 48 C 35.600 48, 36 47.750, 36 45.500 C 36 43.500, 36.500 43, 38.500 43 C 40.750 43, 41 42.600, 41 39 C 41 35.400, 40.750 35, 38.500 35 C 36.500 35, 36 34.500, 36 32.500 C 36 30.250, 35.600 30, 32 30 C 28.400 30, 28 30.250, 28 32.500 M 30 34.500 C 30 36.500, 29.500 37, 27.500 37 C 25.667 37, 25 37.533, 25 39 C 25 40.467, 25.667 41, 27.500 41 C 29.500 41, 30 41.500, 30 43.500 C 30 45.333, 30.533 46, 32 46 C 33.467 46, 34 45.333, 34 43.500 C 34 41.500, 34.500 41, 36.500 41 C 38.333 41, 39 40.467, 39 39 C 39 37.533, 38.333 37, 36.500 37 C 34.500 37, 34 36.500, 34 34.500 C 34 32.667, 33.467 32, 32 32 C 30.533 32, 30 32.667, 30 34.500" stroke="none" fill="#98709d" fill-rule="evenodd"/><path d="M 19.079 20.877 L 15.949 25.754 16.225 42.127 L 16.500 58.500 32 58.500 L 47.500 58.500 47.500 41.500 L 47.500 24.500 44.617 20.250 L 41.734 16 31.971 16 L 22.208 16 19.079 20.877 M 26.071 26.698 C 13.736 33.181, 16.829 50.941, 30.587 52.626 C 38.180 53.555, 46.004 46.689, 45.996 39.102 C 45.986 29.145, 34.737 22.142, 26.071 26.698 M 28 27.500 C 28 27.775, 28.225 28, 28.500 28 C 28.775 28, 29 27.775, 29 27.500 C 29 27.225, 28.775 27, 28.500 27 C 28.225 27, 28 27.225, 28 27.500 M 35 27.500 C 35 27.775, 35.225 28, 35.500 28 C 35.775 28, 36 27.775, 36 27.500 C 36 27.225, 35.775 27, 35.500 27 C 35.225 27, 35 27.225, 35 27.500 M 26 28.500 C 26 28.775, 26.225 29, 26.500 29 C 26.775 29, 27 28.775, 27 28.500 C 27 28.225, 26.775 28, 26.500 28 C 26.225 28, 26 28.225, 26 28.500 M 23 30.500 C 23 30.775, 23.225 31, 23.500 31 C 23.775 31, 24 30.775, 24 30.500 C 24 30.225, 23.775 30, 23.500 30 C 23.225 30, 23 30.225, 23 30.500 M 40 30.500 C 40 30.775, 40.225 31, 40.500 31 C 40.775 31, 41 30.775, 41 30.500 C 41 30.225, 40.775 30, 40.500 30 C 40.225 30, 40 30.225, 40 30.500 M 21 33.500 C 21 33.775, 21.225 34, 21.500 34 C 21.775 34, 22 33.775, 22 33.500 C 22 33.225, 21.775 33, 21.500 33 C 21.225 33, 21 33.225, 21 33.500 M 42 33.500 C 42 33.775, 42.225 34, 42.500 34 C 42.775 34, 43 33.775, 43 33.500 C 43 33.225, 42.775 33, 42.500 33 C 42.225 33, 42 33.225, 42 33.500 M 20 35.500 C 20 35.775, 20.225 36, 20.500 36 C 20.775 36, 21 35.775, 21 35.500 C 21 35.225, 20.775 35, 20.500 35 C 20.225 35, 20 35.225, 20 35.500 M 43 35.500 C 43 35.775, 43.225 36, 43.500 36 C 43.775 36, 44 35.775, 44 35.500 C 44 35.225, 43.775 35, 43.500 35 C 43.225 35, 43 35.225, 43 35.500 M 20 42.500 C 20 42.775, 20.225 43, 20.500 43 C 20.775 43, 21 42.775, 21 42.500 C 21 42.225, 20.775 42, 20.500 42 C 20.225 42, 20 42.225, 20 42.500 M 43 42.500 C 43 42.775, 43.225 43, 43.500 43 C 43.775 43, 44 42.775, 44 42.500 C 44 42.225, 43.775 42, 43.500 42 C 43.225 42, 43 42.225, 43 42.500 M 21 44.500 C 21 44.775, 21.225 45, 21.500 45 C 21.775 45, 22 44.775, 22 44.500 C 22 44.225, 21.775 44, 21.500 44 C 21.225 44, 21 44.225, 21 44.500 M 42 44.500 C 42 44.775, 42.225 45, 42.500 45 C 42.775 45, 43 44.775, 43 44.500 C 43 44.225, 42.775 44, 42.500 44 C 42.225 44, 42 44.225, 42 44.500 M 23 47.500 C 23 47.775, 23.225 48, 23.500 48 C 23.775 48, 24 47.775, 24 47.500 C 24 47.225, 23.775 47, 23.500 47 C 23.225 47, 23 47.225, 23 47.500 M 40 47.500 C 40 47.775, 40.225 48, 40.500 48 C 40.775 48, 41 47.775, 41 47.500 C 41 47.225, 40.775 47, 40.500 47 C 40.225 47, 40 47.225, 40 47.500 M 26 49.500 C 26 49.775, 26.225 50, 26.500 50 C 26.775 50, 27 49.775, 27 49.500 C 27 49.225, 26.775 49, 26.500 49 C 26.225 49, 26 49.225, 26 49.500 M 37 49.500 C 37 49.775, 37.225 50, 37.500 50 C 37.775 50, 38 49.775, 38 49.500 C 38 49.225, 37.775 49, 37.500 49 C 37.225 49, 37 49.225, 37 49.500 M 28 50.500 C 28 50.775, 28.225 51, 28.500 51 C 28.775 51, 29 50.775, 29 50.500 C 29 50.225, 28.775 50, 28.500 50 C 28.225 50, 28 50.225, 28 50.500 M 35 50.500 C 35 50.775, 35.225 51, 35.500 51 C 35.775 51, 36 50.775, 36 50.500 C 36 50.225, 35.775 50, 35.500 50 C 35.225 50, 35 50.225, 35 50.500" stroke="none" fill="#a3daf8" fill-rule="evenodd"/></svg>