<svg xmlns="http://www.w3.org/2000/svg" width="64" height="64" viewBox="0 0 64 64" version="1.1"><path d="M 47.684 11.808 L 44.959 14.653 47.017 16.516 C 49.037 18.343, 49.127 18.328, 51.763 15.692 L 54.449 13.005 52.429 10.985 L 50.409 8.964 47.684 11.808 M 12.402 47.394 C 11.461 49.847, 14.507 52.893, 16.204 51.196 C 17.162 50.238, 16.958 49.513, 15.250 47.806 C 13.246 45.801, 13.026 45.769, 12.402 47.394" stroke="none" fill="#f9dd8f" fill-rule="evenodd"/><path d="M 54.500 9 C 57.766 12.300, 60.662 15, 60.937 15 C 61.212 15, 58.766 12.300, 55.500 9 C 52.234 5.700, 49.338 3, 49.063 3 C 48.788 3, 51.234 5.700, 54.500 9 M 36 9.542 C 36 10.092, 40.050 14.573, 45 19.500 C 49.950 24.427, 54 28.008, 54 27.458 C 54 26.908, 49.950 22.427, 45 17.500 C 40.050 12.573, 36 8.992, 36 9.542 M 24.100 26.400 C 14.148 36.380, 12.812 38.113, 13.366 40.323 C 14.292 44.010, 18.551 48.648, 22.173 49.910 C 25.303 51.002, 25.420 50.919, 37.414 39.037 L 49.500 27.064 43.531 21.032 C 40.249 17.714, 37.091 15, 36.515 15 C 35.939 15, 30.352 20.130, 24.100 26.400 M 36.188 19.063 C 36.428 19.784, 37.216 20.572, 37.938 20.813 C 38.688 21.063, 39.063 20.688, 38.813 19.938 C 38.572 19.216, 37.784 18.428, 37.063 18.188 C 36.313 17.938, 35.938 18.313, 36.188 19.063 M 32 21.826 C 32 23.180, 36.936 27.397, 37.667 26.667 C 38.038 26.296, 37.286 24.869, 35.996 23.496 C 33.635 20.982, 32 20.299, 32 21.826 M 29.188 26.063 C 29.428 26.784, 30.216 27.572, 30.938 27.813 C 31.688 28.063, 32.063 27.688, 31.813 26.938 C 31.572 26.216, 30.784 25.428, 30.063 25.188 C 29.313 24.938, 28.938 25.313, 29.188 26.063 M 25 28.826 C 25 30.180, 29.936 34.397, 30.667 33.667 C 31.038 33.296, 30.286 31.869, 28.996 30.496 C 26.635 27.982, 25 27.299, 25 28.826 M 22.188 33.063 C 22.428 33.784, 23.216 34.572, 23.938 34.813 C 24.688 35.063, 25.063 34.688, 24.813 33.938 C 24.572 33.216, 23.784 32.428, 23.063 32.188 C 22.313 31.938, 21.938 32.313, 22.188 33.063 M 18 35.791 C 18 37.140, 22.917 41.417, 23.639 40.695 C 23.994 40.339, 23.695 39.338, 22.975 38.470 C 21.293 36.443, 18 34.670, 18 35.791 M 15 40.500 C 15.685 41.325, 16.695 42, 17.245 42 C 17.803 42, 17.694 41.337, 17 40.500 C 16.315 39.675, 15.305 39, 14.755 39 C 14.197 39, 14.306 39.663, 15 40.500" stroke="none" fill="#cee4f0" fill-rule="evenodd"/><path d="M 46.311 1.632 C 45.966 2.530, 46.239 4.153, 46.917 5.239 C 47.962 6.912, 47.806 7.578, 45.890 9.617 L 43.632 12.021 40.924 9.427 C 37.075 5.740, 33.500 6.367, 33.500 10.730 C 33.500 13.500, 31.918 15.564, 22.385 25.230 C 16.271 31.428, 11.046 37.175, 10.773 38 C 10.500 38.825, 10.599 40.400, 10.993 41.500 C 11.420 42.692, 11.128 44.389, 10.272 45.701 C 9.481 46.912, 9.097 48.730, 9.418 49.742 C 9.832 51.046, 8.691 52.868, 5.501 55.999 C 1.381 60.043, -0.188 63, 1.788 63 C 2.221 63, 4.724 60.818, 7.351 58.151 C 11.095 54.351, 12.656 53.403, 14.570 53.769 C 15.913 54.025, 17.619 53.731, 18.363 53.114 C 19.151 52.459, 21.060 52.262, 22.948 52.640 C 26.027 53.255, 26.753 52.718, 38.049 41.451 C 48.253 31.274, 50.375 29.607, 53.190 29.558 C 57.561 29.481, 58.068 26.724, 54.412 22.908 L 51.639 20.013 53.957 17.546 C 56.038 15.331, 56.480 15.223, 58.292 16.492 C 60.640 18.137, 64 16.893, 64 14.378 C 64 13.525, 61.229 9.941, 57.841 6.413 C 51.536 -0.153, 47.619 -1.777, 46.311 1.632 M 54.500 9 C 57.766 12.300, 60.662 15, 60.937 15 C 61.212 15, 58.766 12.300, 55.500 9 C 52.234 5.700, 49.338 3, 49.063 3 C 48.788 3, 51.234 5.700, 54.500 9 M 36 9.542 C 36 10.092, 40.050 14.573, 45 19.500 C 49.950 24.427, 54 28.008, 54 27.458 C 54 26.908, 49.950 22.427, 45 17.500 C 40.050 12.573, 36 8.992, 36 9.542 M 47.684 11.808 L 44.959 14.653 47.017 16.516 C 49.037 18.343, 49.127 18.328, 51.763 15.692 L 54.449 13.005 52.429 10.985 L 50.409 8.964 47.684 11.808 M 24.100 26.400 C 14.148 36.380, 12.812 38.113, 13.366 40.323 C 14.292 44.010, 18.551 48.648, 22.173 49.910 C 25.303 51.002, 25.420 50.919, 37.414 39.037 L 49.500 27.064 43.531 21.032 C 40.249 17.714, 37.091 15, 36.515 15 C 35.939 15, 30.352 20.130, 24.100 26.400 M 36.188 19.063 C 36.428 19.784, 37.216 20.572, 37.938 20.813 C 38.688 21.063, 39.063 20.688, 38.813 19.938 C 38.572 19.216, 37.784 18.428, 37.063 18.188 C 36.313 17.938, 35.938 18.313, 36.188 19.063 M 32 21.826 C 32 23.180, 36.936 27.397, 37.667 26.667 C 38.038 26.296, 37.286 24.869, 35.996 23.496 C 33.635 20.982, 32 20.299, 32 21.826 M 29.188 26.063 C 29.428 26.784, 30.216 27.572, 30.938 27.813 C 31.688 28.063, 32.063 27.688, 31.813 26.938 C 31.572 26.216, 30.784 25.428, 30.063 25.188 C 29.313 24.938, 28.938 25.313, 29.188 26.063 M 25 28.826 C 25 30.180, 29.936 34.397, 30.667 33.667 C 31.038 33.296, 30.286 31.869, 28.996 30.496 C 26.635 27.982, 25 27.299, 25 28.826 M 22.188 33.063 C 22.428 33.784, 23.216 34.572, 23.938 34.813 C 24.688 35.063, 25.063 34.688, 24.813 33.938 C 24.572 33.216, 23.784 32.428, 23.063 32.188 C 22.313 31.938, 21.938 32.313, 22.188 33.063 M 18 35.791 C 18 37.140, 22.917 41.417, 23.639 40.695 C 23.994 40.339, 23.695 39.338, 22.975 38.470 C 21.293 36.443, 18 34.670, 18 35.791 M 15 40.500 C 15.685 41.325, 16.695 42, 17.245 42 C 17.803 42, 17.694 41.337, 17 40.500 C 16.315 39.675, 15.305 39, 14.755 39 C 14.197 39, 14.306 39.663, 15 40.500 M 12.402 47.394 C 11.461 49.847, 14.507 52.893, 16.204 51.196 C 17.162 50.238, 16.958 49.513, 15.250 47.806 C 13.246 45.801, 13.026 45.769, 12.402 47.394" stroke="none" fill="#957fac" fill-rule="evenodd"/></svg>