<?xml version="1.0" encoding="UTF-8"?>
<svg xmlns="http://www.w3.org/2000/svg" xmlns:xlink="http://www.w3.org/1999/xlink" width="64px" height="64px" viewBox="0 0 64 64" version="1.1">
<g id="surface1">
<path style=" stroke:none;fill-rule:nonzero;fill:rgb(0%,0%,0%);fill-opacity:1;" d="M 32.1875 1.324219 C 29.8125 1.636719 28.613281 1.960938 27.0625 2.675781 C 24.851562 3.699219 22.625 5.5625 21.300781 7.5 C 20.425781 8.789062 1.949219 40.8125 1.363281 42.0625 C 0.0859375 44.773438 -0.300781 48.0625 0.3125 51 C 1.363281 56.050781 4.773438 60.039062 9.5625 61.800781 C 14.523438 63.636719 20.414062 62.5 24.351562 58.9375 L 25.085938 58.261719 L 25.324219 58.523438 C 25.710938 58.960938 27.113281 59.800781 28.25 60.289062 C 30.539062 61.261719 34.3125 62.0625 38.414062 62.449219 C 40.898438 62.6875 46.75 62.710938 49.1875 62.5 C 57.585938 61.789062 62.824219 59.824219 63.824219 57.039062 C 64.074219 56.324219 64.074219 42.800781 63.824219 41.949219 C 63.039062 39.324219 58.324219 37.425781 50.425781 36.5625 C 47.898438 36.273438 42.738281 36.1875 40.273438 36.363281 C 39.148438 36.449219 38.210938 36.5 38.1875 36.476562 C 38.175781 36.449219 39.898438 33.425781 42.023438 29.75 C 46.113281 22.699219 46.550781 21.875 47.0625 20.300781 C 48.125 17.050781 47.925781 13.175781 46.523438 10.011719 C 44.261719 4.898438 39.449219 1.613281 33.8125 1.335938 C 33.125 1.300781 32.398438 1.300781 32.1875 1.324219 Z M 36.226562 4.199219 C 39.710938 5.074219 42.601562 7.488281 44.125 10.789062 C 44.960938 12.601562 45.175781 13.664062 45.1875 15.875 C 45.1875 18.050781 44.976562 19.148438 44.199219 20.800781 C 43.761719 21.738281 35.324219 36.4375 35.050781 36.738281 C 34.914062 36.886719 33.25 35.960938 24.511719 30.925781 C 18.800781 27.636719 14.125 24.898438 14.125 24.863281 C 14.125 24.699219 22.925781 9.539062 23.4375 8.8125 C 24.050781 7.949219 25.550781 6.476562 26.375 5.914062 C 27.6875 5.023438 29.539062 4.273438 31.0625 4.011719 C 31.476562 3.9375 31.949219 3.851562 32.125 3.824219 C 32.824219 3.699219 35.101562 3.914062 36.226562 4.199219 Z M 21.375 32 C 25.886719 34.601562 29.925781 36.9375 30.363281 37.1875 L 31.164062 37.664062 L 29.699219 38.136719 C 27.023438 39.011719 25.125 40.273438 24.511719 41.5625 C 24.25 42.113281 24.25 42.273438 24.25 48.738281 L 24.25 55.351562 L 23.6875 56.023438 C 22.351562 57.648438 20.175781 59.039062 17.960938 59.675781 C 11.976562 61.414062 5.851562 58.5 3.4375 52.761719 C 2.101562 49.5625 2.238281 45.875 3.8125 42.738281 C 4.148438 42.074219 9.351562 33.011719 12.476562 27.648438 C 12.6875 27.261719 12.835938 27.136719 12.988281 27.1875 C 13.085938 27.226562 16.875 29.386719 21.375 32 Z M 49.226562 38.960938 C 49.613281 39.0625 49.011719 39.351562 41.773438 42.539062 L 33.914062 46 L 32.335938 45.625 C 29.148438 44.875 26.75 43.664062 26.75 42.8125 C 26.75 42.011719 29 40.835938 32.011719 40.074219 C 34.386719 39.476562 36.613281 39.148438 40.8125 38.824219 C 41.835938 38.75 48.773438 38.863281 49.226562 38.960938 Z M 56.0625 40.050781 C 58.113281 40.585938 59.511719 41.125 60.476562 41.75 C 61.648438 42.511719 61.75 42.9375 60.898438 43.601562 C 58.261719 45.6875 50.914062 46.988281 42.726562 46.835938 C 40.824219 46.800781 39.175781 46.726562 39.074219 46.664062 C 38.925781 46.574219 40.9375 45.636719 46.648438 43.101562 C 50.9375 41.199219 54.4375 39.648438 54.4375 39.636719 C 54.4375 39.636719 55.175781 39.8125 56.0625 40.050781 Z M 29.699219 47.488281 C 31.925781 48.226562 34.539062 48.726562 38.25 49.136719 C 40.175781 49.363281 47.550781 49.363281 49.6875 49.148438 C 54.386719 48.6875 58.625 47.699219 60.898438 46.550781 L 61.5 46.25 L 61.5 56.324219 L 61.039062 56.773438 C 59.5 58.25 54.835938 59.511719 49.0625 60.011719 C 46.636719 60.210938 41.011719 60.1875 38.5625 59.949219 C 33.613281 59.476562 29.6875 58.5 27.761719 57.25 C 27.351562 56.988281 26.960938 56.648438 26.886719 56.511719 C 26.800781 56.351562 26.75 54.574219 26.75 51.261719 L 26.75 46.25 L 27.488281 46.613281 C 27.886719 46.824219 28.886719 47.210938 29.699219 47.488281 Z M 29.699219 47.488281 "/>
<path style=" stroke:none;fill-rule:nonzero;fill:rgb(0%,0%,0%);fill-opacity:1;" d="M 34.3125 5.886719 C 33.863281 6.011719 33.5 6.5625 33.5 7.125 C 33.5 7.710938 34.085938 8.25 34.726562 8.25 C 36.011719 8.25 36.398438 6.539062 35.25 5.9375 C 34.851562 5.726562 34.835938 5.726562 34.3125 5.886719 Z M 34.3125 5.886719 "/>
<path style=" stroke:none;fill-rule:nonzero;fill:rgb(0%,0%,0%);fill-opacity:1;" d="M 30.3125 6.085938 C 29.824219 6.210938 28.648438 6.75 27.886719 7.1875 C 26.425781 8.050781 24.488281 10.164062 24.300781 11.113281 C 24.085938 12.148438 25.261719 13.023438 26.085938 12.4375 C 26.238281 12.335938 26.613281 11.886719 26.925781 11.449219 C 27.914062 10.0625 28.988281 9.261719 30.699219 8.625 C 31.8125 8.199219 32.085938 7.988281 32.199219 7.4375 C 32.289062 6.976562 32.011719 6.324219 31.636719 6.125 C 31.386719 6 30.761719 5.976562 30.3125 6.085938 Z M 30.3125 6.085938 "/>
</g>
</svg>
