<svg xmlns="http://www.w3.org/2000/svg" width="64" height="64" viewBox="0 0 64 64" version="1.1"><path d="M 36.500 4.371 C 34.850 5.142, 27.131 12.237, 19.346 20.137 C 7.865 31.786, 4.981 35.290, 4.075 38.682 C 0.688 51.376, 12.622 63.310, 25.318 59.925 C 28.730 59.016, 32.213 56.123, 44.236 44.212 C 60.169 28.428, 61.562 26.202, 60.756 17.809 C 60.254 12.590, 58.142 8.941, 53.702 5.627 C 50.296 3.084, 40.744 2.387, 36.500 4.371 M 37.413 6.569 C 35.715 7.406, 32.351 10.104, 29.937 12.564 L 25.548 17.036 36.253 27.741 L 46.958 38.447 51.064 34.473 C 56.845 28.878, 59.336 23.671, 58.743 18.415 C 57.576 8.060, 46.668 2.002, 37.413 6.569 M 40 8 C 39.175 8.533, 38.725 8.994, 39 9.024 C 47.812 9.995, 53.306 9.119, 47.750 7.630 C 44.496 6.758, 41.716 6.891, 40 8 M 52.188 12.063 C 52.428 12.784, 53.216 13.572, 53.938 13.813 C 54.688 14.063, 55.063 13.688, 54.813 12.938 C 54.572 12.216, 53.784 11.428, 53.063 11.188 C 52.313 10.938, 51.938 11.313, 52.188 12.063 M 23 20.594 C 23 21.470, 22.100 22.423, 21 22.710 C 19.900 22.998, 19 23.507, 19 23.842 C 19 24.176, 22.013 27.486, 25.695 31.197 C 29.377 34.907, 32.065 38.269, 31.667 38.667 C 31.269 39.065, 27.811 36.281, 23.982 32.482 L 17.021 25.574 12.926 29.537 C 8.020 34.284, 5 39.796, 5 44 C 5 49.250, 8.609 54.919, 13.309 57.053 C 18.428 59.378, 20.960 59.459, 25.782 57.455 C 29.987 55.708, 39.722 46.659, 41.064 43.250 C 41.552 42.013, 42.637 41, 43.475 41 C 44.314 41, 45 40.654, 45 40.232 C 45 39.253, 24.714 19, 23.733 19 C 23.330 19, 23 19.717, 23 20.594 M 24.065 24.422 C 23.378 25.250, 23.285 26.058, 23.838 26.400 C 24.353 26.718, 25.296 26.348, 25.935 25.578 C 26.622 24.750, 26.715 23.942, 26.162 23.600 C 25.647 23.282, 24.704 23.652, 24.065 24.422 M 27.459 28.067 C 27.096 28.653, 27.040 29.373, 27.333 29.667 C 28.050 30.383, 30 29.121, 30 27.941 C 30 26.663, 28.274 26.748, 27.459 28.067 M 31.065 31.422 C 30.378 32.250, 30.285 33.058, 30.838 33.400 C 31.353 33.718, 32.296 33.348, 32.935 32.578 C 33.622 31.750, 33.715 30.942, 33.162 30.600 C 32.647 30.282, 31.704 30.652, 31.065 31.422 M 34.459 35.067 C 34.096 35.653, 34.040 36.373, 34.333 36.667 C 35.050 37.383, 37 36.121, 37 34.941 C 37 33.663, 35.274 33.748, 34.459 35.067 M 38.065 38.422 C 37.378 39.250, 37.285 40.058, 37.838 40.400 C 38.353 40.718, 39.296 40.348, 39.935 39.578 C 40.622 38.750, 40.715 37.942, 40.162 37.600 C 39.647 37.282, 38.704 37.652, 38.065 38.422 M 33.645 40.765 C 32.913 41.949, 36.737 45.596, 37.701 44.633 C 38.079 44.254, 37.456 43.012, 36.316 41.871 C 35.161 40.716, 33.978 40.226, 33.645 40.765" stroke="none" fill="#8a76a8" fill-rule="evenodd"/><path d="M 37.413 6.569 C 35.715 7.406, 32.351 10.104, 29.937 12.564 L 25.548 17.036 36.253 27.741 L 46.958 38.447 51.064 34.473 C 56.845 28.878, 59.336 23.671, 58.743 18.415 C 57.576 8.060, 46.668 2.002, 37.413 6.569 M 40 8 C 39.175 8.533, 38.725 8.994, 39 9.024 C 47.812 9.995, 53.306 9.119, 47.750 7.630 C 44.496 6.758, 41.716 6.891, 40 8 M 52.188 12.063 C 52.428 12.784, 53.216 13.572, 53.938 13.813 C 54.688 14.063, 55.063 13.688, 54.813 12.938 C 54.572 12.216, 53.784 11.428, 53.063 11.188 C 52.313 10.938, 51.938 11.313, 52.188 12.063" stroke="none" fill="#eb7d9e" fill-rule="evenodd"/><path d="M 23 20.594 C 23 21.470, 22.100 22.423, 21 22.710 C 19.900 22.998, 19 23.507, 19 23.842 C 19 24.176, 22.013 27.486, 25.695 31.197 C 29.377 34.907, 32.065 38.269, 31.667 38.667 C 31.269 39.065, 27.811 36.281, 23.982 32.482 L 17.021 25.574 12.926 29.537 C 5.611 36.616, 3.214 44.251, 6.500 50 C 8.284 53.120, 8.373 54.333, 6.750 53.398 C 6.063 53.002, 6.591 53.875, 7.924 55.339 C 10.439 58.099, 11.632 58.831, 10.420 56.870 C 9.986 56.169, 10.248 55.955, 11.111 56.305 C 17.579 58.935, 20.127 59.279, 24.170 58.067 C 28.686 56.714, 39.590 47.165, 41.089 43.250 C 41.563 42.013, 42.637 41, 43.475 41 C 44.314 41, 45 40.654, 45 40.232 C 45 39.253, 24.714 19, 23.733 19 C 23.330 19, 23 19.717, 23 20.594 M 24.065 24.422 C 23.378 25.250, 23.285 26.058, 23.838 26.400 C 24.353 26.718, 25.296 26.348, 25.935 25.578 C 26.622 24.750, 26.715 23.942, 26.162 23.600 C 25.647 23.282, 24.704 23.652, 24.065 24.422 M 27.459 28.067 C 27.096 28.653, 27.040 29.373, 27.333 29.667 C 28.050 30.383, 30 29.121, 30 27.941 C 30 26.663, 28.274 26.748, 27.459 28.067 M 31.065 31.422 C 30.378 32.250, 30.285 33.058, 30.838 33.400 C 31.353 33.718, 32.296 33.348, 32.935 32.578 C 33.622 31.750, 33.715 30.942, 33.162 30.600 C 32.647 30.282, 31.704 30.652, 31.065 31.422 M 34.459 35.067 C 34.096 35.653, 34.040 36.373, 34.333 36.667 C 35.050 37.383, 37 36.121, 37 34.941 C 37 33.663, 35.274 33.748, 34.459 35.067 M 38.065 38.422 C 37.378 39.250, 37.285 40.058, 37.838 40.400 C 38.353 40.718, 39.296 40.348, 39.935 39.578 C 40.622 38.750, 40.715 37.942, 40.162 37.600 C 39.647 37.282, 38.704 37.652, 38.065 38.422 M 33.645 40.765 C 32.913 41.949, 36.737 45.596, 37.701 44.633 C 38.079 44.254, 37.456 43.012, 36.316 41.871 C 35.161 40.716, 33.978 40.226, 33.645 40.765 M 8.500 55 C 8.840 55.550, 9.343 56, 9.618 56 C 9.893 56, 9.840 55.550, 9.500 55 C 9.160 54.450, 8.657 54, 8.382 54 C 8.107 54, 8.160 54.450, 8.500 55" stroke="none" fill="#7fc3f2" fill-rule="evenodd"/></svg>