<?xml version="1.0" encoding="UTF-8"?>
<svg xmlns="http://www.w3.org/2000/svg" xmlns:xlink="http://www.w3.org/1999/xlink" width="64px" height="64px" viewBox="0 0 64 64" version="1.1">
<g id="surface1">
<path style=" stroke:none;fill-rule:nonzero;fill:rgb(0%,0%,0%);fill-opacity:1;" d="M 52.875 0.164062 C 52.460938 0.363281 52.226562 0.898438 52.324219 1.324219 C 52.375 1.511719 52.800781 2.074219 53.273438 2.5625 L 54.125 3.476562 L 52.601562 4.960938 C 49.414062 8.0625 45.851562 11.4375 45.726562 11.488281 C 45.664062 11.511719 44.460938 10.398438 43.074219 9.011719 C 40.476562 6.425781 40.324219 6.324219 39.710938 6.648438 C 39.300781 6.863281 39.136719 7.136719 39.125 7.613281 C 39.125 7.976562 39.261719 8.175781 40.125 9.050781 L 41.113281 10.0625 L 27.5625 23.625 C 14.925781 36.261719 14 37.226562 14 37.613281 C 14 37.976562 14.164062 38.199219 15.175781 39.238281 L 16.351562 40.4375 L 15.226562 41.625 C 14.613281 42.273438 14.0625 42.9375 14 43.085938 C 13.8125 43.550781 14.0625 43.988281 15.136719 45.0625 L 16.125 46.0625 L 14 48.1875 L 15.8125 50 L 17.9375 47.875 L 18.875 48.824219 C 20.023438 49.988281 20.460938 50.210938 21.039062 49.9375 C 21.261719 49.835938 21.925781 49.273438 22.5 48.6875 L 23.550781 47.625 L 24.761719 48.8125 C 25.800781 49.835938 26.023438 50 26.386719 50 C 26.773438 50 27.738281 49.074219 40.375 36.4375 L 53.9375 22.886719 L 54.949219 23.875 C 55.824219 24.738281 56.023438 24.875 56.386719 24.875 C 56.863281 24.863281 57.136719 24.699219 57.351562 24.289062 C 57.6875 23.675781 57.574219 23.523438 54.800781 20.738281 C 53.3125 19.25 52.113281 17.960938 52.136719 17.898438 C 52.175781 17.800781 57.300781 12.851562 60.085938 10.210938 L 60.488281 9.835938 L 61.414062 10.710938 C 61.925781 11.199219 62.488281 11.625 62.675781 11.675781 C 63.386719 11.851562 64.113281 11.113281 63.9375 10.398438 C 63.851562 10.023438 54.425781 0.488281 53.851562 0.175781 C 53.4375 -0.0390625 53.273438 -0.0390625 52.875 0.164062 Z M 58.875 8.261719 C 58.875 8.3125 56.988281 10.164062 54.675781 12.386719 L 50.476562 16.414062 L 48.863281 14.800781 C 47.976562 13.914062 47.261719 13.148438 47.273438 13.113281 C 47.300781 13.0625 49.199219 11.226562 51.5 9.011719 L 55.6875 5.011719 L 57.289062 6.601562 C 58.164062 7.476562 58.875 8.226562 58.875 8.261719 Z M 39.351562 34.335938 L 26.3125 47.375 L 16.625 37.6875 L 17.960938 36.351562 L 19.300781 35 L 20.636719 36.3125 C 21.398438 37.0625 22.0625 37.625 22.199219 37.625 C 22.636719 37.625 23 37.261719 23 36.835938 C 23 36.5 22.800781 36.25 21.726562 35.164062 L 20.4375 33.875 L 21.976562 32.351562 L 23.5 30.8125 L 26.039062 33.351562 C 28.0625 35.375 28.625 35.875 28.898438 35.875 C 29.425781 35.875 29.710938 35.488281 29.625 34.875 C 29.613281 34.773438 28.488281 33.5625 27.113281 32.1875 L 24.625 29.6875 L 27 27.3125 L 28.289062 28.601562 C 29.375 29.6875 29.625 29.875 29.960938 29.875 C 30.449219 29.875 30.824219 29.414062 30.699219 28.976562 C 30.664062 28.8125 30.074219 28.125 29.375 27.4375 L 28.125 26.1875 L 31.1875 23.125 L 33.6875 25.613281 C 35.0625 26.976562 36.300781 28.136719 36.449219 28.175781 C 36.824219 28.289062 37.375 27.824219 37.375 27.398438 C 37.375 27.148438 36.851562 26.550781 34.851562 24.539062 L 32.324219 22 L 34.675781 19.625 L 36.011719 20.9375 C 37.398438 22.300781 37.625 22.425781 38.125 22.023438 C 38.6875 21.574219 38.523438 21.210938 37.113281 19.800781 L 35.8125 18.5 L 38.875 15.4375 L 41.414062 17.976562 C 43.425781 19.976562 44.023438 20.5 44.273438 20.5 C 44.699219 20.5 45.164062 19.949219 45.050781 19.574219 C 45.011719 19.425781 43.851562 18.1875 42.488281 16.8125 L 40 14.3125 L 41.335938 12.960938 L 42.6875 11.625 L 52.375 21.3125 Z M 19.960938 44.023438 C 21.011719 45.074219 21.875 45.988281 21.875 46.0625 C 21.875 46.226562 20.726562 47.375 20.5625 47.375 C 20.398438 47.375 16.625 43.613281 16.625 43.4375 C 16.625 43.273438 17.773438 42.125 17.9375 42.125 C 18 42.125 18.914062 42.988281 19.960938 44.023438 Z M 19.960938 44.023438 "/>
<path style=" stroke:none;fill-rule:nonzero;fill:rgb(0%,0%,0%);fill-opacity:1;" d="M 7.351562 55.976562 C 2.761719 60.5625 0.5625 62.863281 0.375 63.226562 C 0.226562 63.523438 0.136719 63.800781 0.164062 63.835938 C 0.199219 63.863281 0.5 63.75 0.835938 63.574219 C 1.273438 63.351562 3.25 61.449219 8.101562 56.601562 L 14.761719 49.925781 L 14.414062 49.585938 L 14.050781 49.261719 Z M 7.351562 55.976562 "/>
</g>
</svg>
