<?xml version="1.0" encoding="UTF-8"?>
<svg xmlns="http://www.w3.org/2000/svg" xmlns:xlink="http://www.w3.org/1999/xlink" width="64px" height="64px" viewBox="0 0 64 64" version="1.1">
<g id="surface1">
<path style=" stroke:none;fill-rule:nonzero;fill:rgb(0%,0%,0%);fill-opacity:1;" d="M 32 9.625 C 32 12.074219 31.925781 12.261719 29.363281 15.6875 C 28.199219 17.238281 26.886719 19.023438 26.460938 19.664062 C 24.960938 21.863281 23.800781 24.4375 23.113281 27.125 C 22.398438 29.851562 22.351562 30.488281 22.289062 37.773438 L 22.226562 44.488281 L 24.164062 44.523438 C 26 44.5625 26.125 44.574219 26.414062 44.851562 C 26.585938 45.011719 26.761719 45.289062 26.800781 45.449219 C 26.875 45.710938 25.875 58.4375 25.675781 59.875 C 25.601562 60.398438 25.0625 61.6875 24.726562 62.148438 C 24.613281 62.3125 24.613281 62.398438 24.738281 62.550781 C 25.039062 62.898438 26.300781 63.511719 27.238281 63.761719 C 28.113281 63.988281 28.699219 64 38.300781 64 C 44.773438 64 48.738281 63.949219 49.25 63.863281 C 51.75 63.460938 53.976562 61.3125 54.5 58.8125 C 54.585938 58.363281 54.625 53.898438 54.585938 44.238281 C 54.550781 31.738281 54.523438 30.199219 54.335938 29.25 C 53.789062 26.539062 53.261719 24.914062 52.238281 22.761719 C 51.3125 20.835938 50.4375 19.488281 47.824219 16.023438 C 46.699219 14.511719 45.625 13 45.449219 12.664062 C 45.0625 11.875 44.875 10.800781 44.875 9.210938 L 44.875 8 L 32 8 Z M 45.1875 35.085938 C 45.824219 35.414062 46.25 35.898438 46.4375 36.550781 C 46.601562 37.0625 46.625 38.398438 46.625 44.550781 C 46.625 49.5 46.574219 52.101562 46.488281 52.4375 C 46.289062 53.148438 45.800781 53.738281 45.175781 54.011719 C 44.664062 54.25 44.300781 54.25 38.273438 54.226562 L 31.925781 54.1875 L 31.476562 53.886719 C 31.238281 53.726562 30.898438 53.386719 30.738281 53.148438 L 30.4375 52.699219 L 30.4375 36.414062 L 30.773438 35.925781 C 31.164062 35.363281 31.625 35.0625 32.324219 34.886719 C 32.625 34.8125 35.136719 34.789062 38.8125 34.835938 C 43.773438 34.886719 44.875 34.9375 45.1875 35.085938 Z M 45.1875 35.085938 "/>
<path style=" stroke:none;fill-rule:nonzero;fill:rgb(0%,0%,0%);fill-opacity:1;" d="M 34.875 38.585938 C 34.398438 38.761719 34.125 39.175781 34.125 39.699219 C 34.125 40.136719 34.1875 40.289062 34.511719 40.5625 L 34.914062 40.886719 L 38.585938 40.851562 L 42.273438 40.8125 L 42.574219 40.460938 C 42.886719 40.085938 42.960938 39.523438 42.75 39.113281 C 42.4375 38.550781 42.101562 38.5 38.476562 38.511719 C 36.601562 38.511719 34.976562 38.550781 34.875 38.585938 Z M 34.875 38.585938 "/>
<path style=" stroke:none;fill-rule:nonzero;fill:rgb(0%,0%,0%);fill-opacity:1;" d="M 34.875 43.460938 C 34.085938 43.761719 33.851562 44.824219 34.449219 45.386719 L 34.773438 45.6875 L 42.273438 45.6875 L 42.574219 45.335938 C 42.976562 44.875 42.976562 44.25 42.574219 43.789062 L 42.273438 43.4375 L 38.664062 43.414062 C 36.6875 43.398438 34.976562 43.425781 34.875 43.460938 Z M 34.875 43.460938 "/>
<path style=" stroke:none;fill-rule:nonzero;fill:rgb(0%,0%,0%);fill-opacity:1;" d="M 34.6875 48.398438 C 34.050781 48.773438 33.925781 49.625 34.425781 50.210938 L 34.726562 50.5625 L 38.085938 50.601562 C 39.925781 50.625 41.625 50.601562 41.863281 50.5625 C 42.863281 50.375 43.210938 49.3125 42.511719 48.613281 L 42.148438 48.25 L 38.539062 48.25 C 36.0625 48.261719 34.863281 48.300781 34.6875 48.398438 Z M 34.6875 48.398438 "/>
<path style=" stroke:none;fill-rule:nonzero;fill:rgb(0%,0%,0%);fill-opacity:1;" d="M 15.675781 52.710938 L 13.148438 52.75 L 12.824219 53.085938 C 12.4375 53.476562 12.425781 53.539062 12.699219 56.863281 C 12.925781 59.75 13.011719 60.113281 13.539062 60.710938 C 14.199219 61.476562 14.375 61.5 18.085938 61.5 C 21.1875 61.5 21.460938 61.488281 21.949219 61.25 C 22.488281 60.988281 23.050781 60.300781 23.1875 59.75 C 23.226562 59.574219 23.363281 58.175781 23.488281 56.625 C 23.761719 53.398438 23.726562 53.136719 22.949219 52.8125 C 22.488281 52.625 22.511719 52.625 15.675781 52.710938 Z M 15.675781 52.710938 "/>
</g>
</svg>
